<?xml version="1.0" standalone="no"?>
<!DOCTYPE svg PUBLIC "-//W3C//DTD SVG 20010904//EN"
 "http://www.w3.org/TR/2001/REC-SVG-20010904/DTD/svg10.dtd">
<svg version="1.0" xmlns="http://www.w3.org/2000/svg"
 width="227.000000pt" height="218.000000pt" viewBox="0 0 227.000000 218.000000"
 preserveAspectRatio="xMidYMid meet">

<g transform="translate(0.000000,218.000000) scale(0.100000,-0.100000)"
fill="#000000" stroke="none">
<path d="M739 2056 c-2 -3 -36 -6 -74 -7 -131 -4 -249 -62 -361 -174 -49 -49
-82 -93 -103 -139 -46 -96 -54 -223 -48 -746 6 -459 8 -478 63 -581 43 -82
174 -206 264 -251 l75 -38 540 -2 c585 -3 557 -5 682 53 116 55 187 126 268
269 l36 63 -2 531 c0 292 -5 561 -10 598 -14 114 -75 208 -210 322 -54 45
-130 75 -215 86 -78 9 -897 23 -905 16z m409 -402 c39 -11 69 -103 44 -140
-28 -42 -108 -40 -142 3 -31 39 -26 86 11 117 31 27 47 30 87 20z m-54 -211
c33 -15 37 -15 54 0 10 9 28 17 39 17 60 0 221 -79 256 -127 17 -22 17 -26 3
-47 -23 -36 -49 -37 -116 -5 -156 74 -273 78 -397 16 -100 -51 -143 -48 -143
8 0 27 61 84 118 111 102 48 133 53 186 27z m133 -169 c127 -42 204 -160 204
-313 1 -115 -65 -216 -177 -271 -62 -30 -71 -32 -148 -28 -128 7 -220 68 -277
183 -29 59 -31 71 -27 137 9 132 81 233 204 283 70 29 152 32 221 9z m-485
-225 c4 -19 11 -71 17 -116 6 -50 20 -100 35 -130 27 -53 93 -120 146 -149 66
-36 84 -60 81 -106 -3 -51 -93 -36 -186 30 -78 56 -105 90 -105 137 0 32 -5
42 -22 50 -79 34 -105 281 -35 330 29 20 60 0 69 -46z m839 35 c9 -11 14 -48
14 -118 0 -120 -20 -188 -63 -208 -19 -10 -27 -21 -28 -44 -2 -45 -29 -79
-100 -130 -110 -79 -194 -91 -194 -29 0 22 52 85 70 85 5 0 36 22 69 50 86 71
129 161 141 294 5 53 12 101 15 107 10 15 61 10 76 -7z m-917 -345 c30 -24 34
-64 11 -109 -22 -43 -48 -54 -90 -39 -65 24 -81 114 -28 155 27 20 77 17 107
-7z m1015 6 c16 -8 31 -22 35 -30 30 -80 -47 -158 -116 -117 -52 30 -63 98
-23 137 27 28 63 32 104 10z"/>
</g>
</svg>
